<svg width="56" height="56" viewBox="0 0 56 56" fill="none" xmlns="http://www.w3.org/2000/svg">
<path d="M27.8518 16.4939C20.9382 16.4939 15.2098 22.1235 15.2098 29.1359C15.2098 36.1482 20.8395 41.7778 27.8518 41.7778C34.8642 41.7778 40.4938 36.0495 40.4938 29.1359C40.4938 22.2223 34.7654 16.4939 27.8518 16.4939ZM27.8518 37.2346C23.4074 37.2346 19.753 33.5803 19.753 29.1359C19.753 24.6914 23.4074 21.0371 27.8518 21.0371C32.2963 21.0371 35.9506 24.6914 35.9506 29.1359C35.9506 33.5803 32.2963 37.2346 27.8518 37.2346Z" fill="black"/>
<path d="M40.9876 19.0616C42.5695 19.0616 43.8518 17.7793 43.8518 16.1974C43.8518 14.6156 42.5695 13.3333 40.9876 13.3333C39.4058 13.3333 38.1234 14.6156 38.1234 16.1974C38.1234 17.7793 39.4058 19.0616 40.9876 19.0616Z" fill="black"/>
<path d="M48.3951 8.7901C45.8272 6.12344 42.1728 4.74072 38.0247 4.74072H17.679C9.08643 4.74072 3.35803 10.4691 3.35803 19.0617V39.3086C3.35803 43.5555 4.74075 47.2099 7.50618 49.8765C10.1728 52.4444 13.7284 53.7284 17.7778 53.7284H37.9259C42.1728 53.7284 45.7284 52.3457 48.2963 49.8765C50.963 47.3086 52.3457 43.6543 52.3457 39.4074V19.0617C52.3457 14.9136 50.963 11.358 48.3951 8.7901ZM48 39.4074C48 42.4691 46.9136 44.9383 45.1358 46.6173C43.358 48.2963 40.8889 49.1852 37.9259 49.1852H17.7778C14.8148 49.1852 12.3457 48.2963 10.5679 46.6173C8.79013 44.8395 7.90124 42.3704 7.90124 39.3086V19.0617C7.90124 16.0987 8.79013 13.6296 10.5679 11.8518C12.2469 10.1728 14.8148 9.28393 17.7778 9.28393H38.1235C41.0864 9.28393 43.5556 10.1728 45.3333 11.9506C47.0124 13.7284 48 16.1975 48 19.0617V39.4074Z" fill="black"/>
</svg>
