<svg width="50" height="50" viewBox="0 0 50 50" fill="none" xmlns="http://www.w3.org/2000/svg">
<path d="M31.5305 1.46636V2.65308C31.5305 3.45542 30.8852 4.10308 30.093 4.10308H29.5898V6.42808C24.6516 5.39761 20.4102 6.42808 20.4102 6.42808V4.10308H19.907C19.1156 4.10308 18.4688 3.45542 18.4688 2.65308V1.46636C18.4688 0.664014 19.1156 0.0280762 19.907 0.0280762H30.0938C30.8852 0.0280762 31.5305 0.664014 31.5305 1.46636Z" fill="#121212"/>
<path d="M43.2281 9.99521L36.7648 5.47802C36.3664 5.20068 36.1024 5.36943 35.9625 5.5249L35.8469 5.69131L34.2328 8.00146C34.2328 8.00146 38.307 9.59287 41.7648 13.264L43.3883 10.9405C43.7594 10.403 43.2773 10.0311 43.2281 9.99521Z" fill="#121212"/>
<path d="M25.0008 8.02881C13.418 8.02881 4.02969 17.4179 4.02969 29.0007C4.02969 40.5812 13.4188 49.9718 25.0008 49.9718C36.5813 49.9718 45.9703 40.5812 45.9703 29.0007C45.9703 17.4179 36.5813 8.02881 25.0008 8.02881ZM25.0008 29.0007V12.4155C25.0008 12.4155 40.5789 12.1554 41.5852 29.0007C30.3906 28.9647 25.0008 29.0007 25.0008 29.0007Z" fill="#121212"/>
</svg>
