<svg width="50" height="50" viewBox="0 0 50 50" fill="none" xmlns="http://www.w3.org/2000/svg">
<g clip-path="url(#clip0_4_144)">
<path d="M38.325 30.2585L35.1945 29.289C34.3719 29.0312 33.743 28.3609 33.743 28.3609L32.3922 26.6343C32.3922 26.632 32.3922 26.632 32.3922 26.632C31.6672 25.7077 31.6625 26.632 31.6625 26.632V31.7124C31.6726 31.8882 31.7625 32.2562 32.3711 32.1163L38.3266 30.7452C38.9914 30.5921 38.325 30.2585 38.325 30.2585Z" fill="#121212"/>
<path d="M18.5836 26.4265L17.5906 27.6374C17.5906 27.6374 16.7281 28.6601 15.5203 29.1062L12.5305 30.2038H12.5328C12.5328 30.2038 11.7586 30.5702 12.5305 30.7476L18.2625 32.0663C19.0117 32.2398 19.1594 31.8655 19.182 31.6296V26.4265C19.1828 25.7319 18.5836 26.4265 18.5836 26.4265Z" fill="#121212"/>
<path d="M25 0.160889C11.2812 0.160889 0.161713 11.2812 0.161713 24.9992C0.161713 38.7187 11.2812 49.839 25 49.839C38.7187 49.839 49.8383 38.7187 49.8383 24.9992C49.8383 11.2812 38.7187 0.160889 25 0.160889ZM25.4844 5.73511C27.8656 5.73511 29.7953 7.66558 29.7953 10.0468C29.7953 12.4281 27.8656 14.3554 25.4844 14.3554C23.1023 14.3554 21.1726 12.4281 21.1726 10.0468C21.1726 7.66558 23.1023 5.73511 25.4844 5.73511ZM41.3422 36.1367C40.1094 36.7234 36.4703 38.6273 34.8984 39.4499C34.8812 39.4624 34.2469 39.8835 34.8984 40.2125L35.1664 40.3453C35.3101 40.4273 35.6476 40.7039 35.4953 41.4476L35.3547 42.1375C35.3547 42.1375 35.3523 42.1476 35.3523 42.1499L35.3414 42.1953C35.2937 42.4078 35.0406 43.1703 33.8406 43.1703H16.9844C15.6609 43.1703 15.2648 41.5843 15.25 41.5218C15.3226 40.6898 15.7664 40.3054 15.7664 40.3054L15.7586 40.3031C16.25 39.7687 15.6336 39.3734 15.6336 39.3734L9.04687 35.9117C9.04687 35.9117 6.36484 33.8117 8.00937 31.7539C8.01171 31.7492 8.00937 31.746 8.01171 31.7437C8.33046 31.2093 8.12499 30.714 8.04218 30.5554C7.89218 30.2773 7.75937 30.0289 7.64374 29.8187C7.43827 29.3578 7.21562 28.3773 8.6039 27.771L13.2406 25.7585C13.5289 25.632 14.5016 25.1304 15.3234 23.9289L19.7125 17.5335C19.7125 17.5335 20.8453 16.2476 22.1336 16.2476H28.2601C28.2601 16.2476 29.9992 15.7945 31.3601 17.9109C32.3305 19.421 34.5234 22.3796 35.7062 23.9625C35.7062 23.9625 36.475 25.0078 38.1773 25.8062L42.7359 27.9414C42.7359 27.9414 43.7461 28.4625 43.2047 29.6875C43.2047 29.6875 43.2047 29.6875 43.2047 29.6906L42.8766 30.4375C42.8766 30.4375 42.6312 30.8609 42.9414 31.4601C43.232 31.9437 43.6039 32.7156 43.4601 33.3367C43.2312 34.3226 42.9305 35.3796 41.3422 36.1367Z" fill="#121212"/>
</g>
<defs>
<clipPath id="clip0_4_144">
<rect width="50" height="50" fill="white"/>
</clipPath>
</defs>
</svg>
