<svg width="50" height="50" viewBox="0 0 50 50" fill="none" xmlns="http://www.w3.org/2000/svg">
<path d="M42.2373 20.5601L35.0677 10.3207L38.4808 7.93079L45.6504 18.1702L42.2373 20.5601Z" fill="black"/>
<path d="M38.3127 25.8512L34.7279 20.7317L17.6621 32.6812L21.2469 37.8008L17.8338 40.1908L8.2742 26.5381L11.6873 24.1483L15.2722 29.2681L32.3379 17.3185L28.7531 12.1987L32.1662 9.80884L41.7258 23.4614L38.3127 25.8512Z" fill="black"/>
<path d="M43.2606 14.7569L46.6738 12.367L44.2838 8.95386L40.8706 11.3438L43.2606 14.7569Z" fill="black"/>
<path d="M14.9324 39.6792L7.76264 29.4396L4.34952 31.8296L11.5192 42.069L14.9324 39.6792Z" fill="black"/>
<path d="M9.12934 38.656L5.71619 41.0458L3.32629 37.6327L6.73942 35.2429L9.12934 38.656Z" fill="black"/>
</svg>
