<svg width="56" height="56" viewBox="0 0 56 56" fill="none" xmlns="http://www.w3.org/2000/svg">
<g clip-path="url(#clip0_201_2)">
<path d="M36.75 23.1875C40.3201 25.7508 44.605 27.1281 49 27.125V18.375C45.7511 18.375 42.6353 17.0844 40.3379 14.7871C38.0406 12.4897 36.75 9.3739 36.75 6.125H28V34.125C27.9999 35.2211 27.7057 36.2971 27.1481 37.2407C26.5904 38.1844 25.7898 38.9611 24.8296 39.4898C23.8695 40.0186 22.7851 40.28 21.6895 40.2468C20.5939 40.2136 19.5272 39.887 18.6009 39.3011C17.6745 38.7152 16.9224 37.8914 16.4229 36.9157C15.9234 35.94 15.6949 34.8482 15.7612 33.7541C15.8275 32.66 16.1862 31.6037 16.7999 30.6955C17.4135 29.7873 18.2597 29.0604 19.25 28.5906V19.4906C16.4644 19.99 13.8791 21.2737 11.7975 23.191C9.71586 25.1083 8.2244 27.5796 7.49815 30.3149C6.77189 33.0501 6.84099 35.9358 7.69731 38.6332C8.55364 41.3305 10.1617 43.7276 12.3326 45.5431C14.5036 47.3586 17.1474 48.517 19.9537 48.8826C22.76 49.2481 25.6124 48.8055 28.176 47.6067C30.7396 46.4079 32.908 44.5027 34.4267 42.1147C35.9454 39.7267 36.7514 36.955 36.75 34.125V23.1875Z" stroke="black" stroke-width="4" stroke-linecap="round" stroke-linejoin="round"/>
</g>
<defs>
<clipPath id="clip0_201_2">
<rect width="56" height="56" fill="white"/>
</clipPath>
</defs>
</svg>
