<svg width="56" height="56" viewBox="0 0 56 56" fill="none" xmlns="http://www.w3.org/2000/svg">
<path d="M28 14.127C28.1006 14.127 38.0275 14.127 44.5813 14.5995L44.87 14.6257C45.745 14.7045 46.69 14.7963 47.6175 15.7545C48.055 16.192 48.5538 17.7407 48.7244 18.8476C49.0009 21.2749 49.147 23.7153 49.1619 26.1582V29.7632C49.1465 32.2076 49.0004 34.6494 48.7244 37.0782C48.5625 38.1588 48.0506 39.7295 47.6219 40.1407C46.6987 41.0945 45.7319 41.1863 44.8788 41.2695L44.5813 41.3001C38.1413 41.7376 28.4419 41.7813 28.0044 41.7813C27.5013 41.7813 15.7544 41.6632 12.005 41.3438C11.7819 41.3088 11.5675 41.2782 11.3138 41.252C10.3163 41.1338 9.18312 40.9982 8.36937 40.1538C7.93187 39.7163 7.43313 38.172 7.26688 37.0695C6.99031 34.6422 6.84426 32.2018 6.82937 29.7588V26.1888C6.84492 23.7459 6.99097 21.3055 7.26688 18.8782C7.4375 17.7626 7.945 16.2138 8.37375 15.7851C9.30125 14.827 10.2681 14.7395 11.1213 14.6563L11.41 14.6301C17.9725 14.162 27.8906 14.1576 27.9869 14.1576H28M28 11.3138C28 11.3138 17.8981 11.3138 11.165 11.7951C10.2244 11.9045 8.17688 11.9132 6.3525 13.8032C4.91313 15.247 4.44062 18.5238 4.44062 18.5238C4.13469 21.0679 3.96674 23.6266 3.9375 26.1888V29.7938C3.95832 32.3659 4.11897 34.9349 4.41875 37.4895C4.41875 37.4895 4.88688 40.7663 6.33063 42.2057C8.16375 44.0957 10.5656 44.0388 11.6375 44.2401C15.4875 44.6032 28 44.717 28 44.717C28 44.717 38.1106 44.717 44.8481 44.2226C45.7888 44.1132 47.8406 44.1001 49.6606 42.2101C51.1 40.7707 51.5725 37.4938 51.5725 37.4938C51.8751 34.9394 52.0387 32.3704 52.0625 29.7982V26.1932C52.0416 23.6212 51.881 21.0522 51.5813 18.4976C51.5813 18.4976 51.1131 15.2207 49.6694 13.777C47.8406 11.887 45.7887 11.8738 44.8569 11.7688C38.1106 11.2832 28 11.2832 28 11.2832V11.3138Z" fill="black"/>
<path d="M23.6819 20.8293V35.1706L35.9275 28L23.6819 20.8293Z" fill="black"/>
</svg>
